<svg width="275" height="85" viewBox="0 0 275 85" fill="none" xmlns="http://www.w3.org/2000/svg">
<rect x="4" y="4" width="77.6315" height="77.6315" rx="10" fill="#6268EE"/>
<path d="M42.8157 25.8701L57.8786 34.3429V51.2886L42.8157 59.7614L27.7529 51.2886V34.3429L42.8157 25.8701Z" stroke="white" stroke-width="4" stroke-linecap="round" stroke-linejoin="round"/>
<path d="M42.8157 42.8157L57.8786 34.3429" stroke="white" stroke-width="4" stroke-linecap="round" stroke-linejoin="round"/>
<path d="M42.8157 42.8157V59.7614" stroke="white" stroke-width="4" stroke-linecap="round" stroke-linejoin="round"/>
<path d="M42.8157 42.8157L27.7529 34.3429" stroke="white" stroke-width="4" stroke-linecap="round" stroke-linejoin="round"/>
<path d="M50.3471 30.1065L35.2843 38.5793" stroke="white" stroke-width="2" stroke-linecap="round" stroke-linejoin="round"/>
<path d="M113.756 55.676C111.884 55.676 110.116 55.3987 108.452 54.844C106.788 54.2893 105.315 53.4573 104.032 52.348C102.749 51.2387 101.744 49.8347 101.016 48.136C100.288 46.4373 99.924 44.4613 99.924 42.208C99.924 39.816 100.271 37.736 100.964 35.968C101.657 34.1653 102.611 32.6747 103.824 31.496C105.072 30.3173 106.528 29.4333 108.192 28.844C109.856 28.2547 111.693 27.96 113.704 27.96C115.125 27.96 116.581 28.116 118.072 28.428C119.597 28.7053 120.932 29.104 122.076 29.624V36.28C120.863 35.7253 119.667 35.2747 118.488 34.928C117.344 34.5467 116.165 34.356 114.952 34.356C112.768 34.356 111 34.9107 109.648 36.02C108.331 37.0947 107.672 38.8627 107.672 41.324C107.672 43.924 108.261 45.8827 109.44 47.2C110.619 48.5173 112.577 49.176 115.316 49.176C116.599 49.176 117.829 48.9507 119.008 48.5C120.221 48.0493 121.261 47.5813 122.128 47.096V53.7C120.915 54.324 119.649 54.8093 118.332 55.156C117.015 55.5027 115.489 55.676 113.756 55.676Z" fill="#302B2B"/>
<path d="M139.39 55.78C134.952 55.78 131.607 54.6013 129.354 52.244C127.135 49.852 126.026 46.3507 126.026 41.74C126.026 36.7827 127.152 33.2293 129.406 31.08C131.694 28.896 135.022 27.804 139.39 27.804C142.336 27.804 144.798 28.3067 146.774 29.312C148.784 30.2827 150.292 31.7907 151.298 33.836C152.338 35.8813 152.858 38.516 152.858 41.74C152.858 46.3507 151.696 49.852 149.374 52.244C147.051 54.6013 143.723 55.78 139.39 55.78ZM139.39 49.592C140.672 49.592 141.73 49.2973 142.562 48.708C143.428 48.084 144.07 47.2 144.486 46.056C144.936 44.8773 145.162 43.4387 145.162 41.74C145.162 39.7987 144.936 38.2733 144.486 37.164C144.07 36.02 143.428 35.2053 142.562 34.72C141.695 34.2 140.638 33.94 139.39 33.94C138.072 33.94 136.998 34.2 136.166 34.72C135.334 35.24 134.71 36.072 134.294 37.216C133.912 38.3253 133.722 39.8333 133.722 41.74C133.722 44.3747 134.172 46.3507 135.074 47.668C136.01 48.9507 137.448 49.592 139.39 49.592Z" fill="#302B2B"/>
<path d="M170.581 55.78C168.155 55.78 166.005 55.3987 164.133 54.636C162.261 53.8733 160.805 52.712 159.765 51.152C158.725 49.5573 158.205 47.4947 158.205 44.964V28.688H165.953V44.34C165.953 46.004 166.317 47.252 167.045 48.084C167.808 48.8813 169.004 49.28 170.633 49.28C172.297 49.28 173.493 48.8813 174.221 48.084C174.949 47.252 175.313 46.004 175.313 44.34V28.688H182.593V44.964C182.593 48.708 181.519 51.4467 179.369 53.18C177.22 54.9133 174.291 55.78 170.581 55.78Z" fill="#302B2B"/>
<path d="M189.436 55V31.444C189.921 31.028 190.788 30.56 192.036 30.04C193.284 29.4853 194.705 29 196.3 28.584C197.929 28.1333 199.559 27.908 201.188 27.908C202.817 27.908 204.1 28.0293 205.036 28.272C205.972 28.5147 206.683 28.8267 207.168 29.208V34.876C206.579 34.7373 205.833 34.6333 204.932 34.564C204.031 34.4947 203.095 34.46 202.124 34.46C201.153 34.4253 200.235 34.4253 199.368 34.46C198.501 34.4947 197.773 34.564 197.184 34.668V55H189.436Z" fill="#302B2B"/>
<path d="M211.834 55V29.052H219.582L219.634 55H211.834ZM211.678 25.1V19.12H219.686V25.1H211.678Z" fill="#302B2B"/>
<path d="M238.465 55.78C235.83 55.78 233.49 55.2427 231.445 54.168C229.434 53.0587 227.857 51.4987 226.713 49.488C225.604 47.4427 225.049 45.016 225.049 42.208C225.049 37.632 226.176 34.096 228.429 31.6C230.717 29.0693 233.976 27.804 238.205 27.804C241.117 27.804 243.457 28.428 245.225 29.676C247.028 30.924 248.345 32.744 249.177 35.136C250.009 37.528 250.408 40.44 250.373 43.872H233L232.911 43.3217L232.849 42.7646L232.81 42.1494L232.797 41.532L232.826 40.309L232.874 39.6107L232.948 38.932H242.5C242.465 36.124 242.4 36.592 241.637 35.448C240.874 34.304 239.626 33.732 237.893 33.732C236.922 33.732 236.038 33.9747 235.241 34.46C234.478 34.9453 233.872 35.76 233.421 36.904C233.005 38.0133 232.797 39.556 232.797 41.532C232.797 44.028 233.386 45.952 234.565 47.304C235.778 48.656 237.702 49.332 240.337 49.332C241.308 49.332 242.261 49.228 243.197 49.02C244.168 48.7773 245.069 48.5 245.901 48.188C246.733 47.876 247.444 47.5987 248.033 47.356V54.012C246.785 54.532 245.381 54.948 243.821 55.26C242.296 55.6067 240.51 55.78 238.465 55.78Z" fill="#302B2B"/>
<path d="M255.756 55V31.444C256.242 31.028 257.108 30.56 258.356 30.04C259.604 29.4853 261.026 29 262.62 28.584C264.25 28.1333 265.879 27.908 267.508 27.908C269.138 27.908 270.42 28.0293 271.356 28.272C272.292 28.5147 273.003 28.8267 273.488 29.208V34.876C272.899 34.7373 272.154 34.6333 271.252 34.564C270.351 34.4947 269.415 34.46 268.444 34.46C267.474 34.4253 266.555 34.4253 265.688 34.46C264.822 34.4947 264.094 34.564 263.504 34.668V55H255.756Z" fill="#302B2B"/>
</svg>
